<svg width="358" height="107" viewBox="0 0 358 107" fill="none" xmlns="http://www.w3.org/2000/svg">
<path d="M7.225 22C5.775 22 4.65833 21.65 3.875 20.95C3.10833 20.2333 2.725 19.1667 2.725 17.75V8.75C2.725 7.33333 3.10833 6.275 3.875 5.575C4.65833 4.85833 5.775 4.5 7.225 4.5H10.775V6.4H6.975C6.35833 6.4 5.85833 6.58333 5.475 6.95C5.09167 7.31667 4.9 7.75833 4.9 8.275V18.225C4.9 18.7417 5.09167 19.1833 5.475 19.55C5.85833 19.9167 6.35833 20.1 6.975 20.1H10.775V22H7.225ZM24.901 18C24.901 19.4 24.551 20.4167 23.851 21.05C23.1676 21.6833 22.101 22 20.651 22H19.826C18.376 22 17.301 21.6833 16.601 21.05C15.9176 20.4167 15.576 19.4 15.576 18V13.5C15.576 12.1 15.9176 11.0833 16.601 10.45C17.301 9.81667 18.376 9.5 19.826 9.5H20.651C22.101 9.5 23.1676 9.81667 23.851 10.45C24.551 11.0833 24.901 12.1 24.901 13.5V18ZM22.776 13C22.776 12.4833 22.6176 12.0833 22.301 11.8C21.9843 11.5167 21.5176 11.375 20.901 11.375H19.576C18.9593 11.375 18.4926 11.5167 18.176 11.8C17.8593 12.0833 17.701 12.4833 17.701 13V18.5C17.701 19.0167 17.8593 19.4167 18.176 19.7C18.4926 19.9833 18.9593 20.125 19.576 20.125H20.901C21.5176 20.125 21.9843 19.9833 22.301 19.7C22.6176 19.4167 22.776 19.0167 22.776 18.5V13ZM36.377 21.425C35.827 21.8083 35.1603 22 34.377 22H33.352C31.8853 22 30.8103 21.6917 30.127 21.075C29.4436 20.4417 29.102 19.4167 29.102 18V13.5C29.102 12.1 29.4436 11.0833 30.127 10.45C30.827 9.81667 31.902 9.5 33.352 9.5H36.252V4.5H38.377V22H36.377V21.425ZM34.627 20.125C35.177 20.125 35.5853 19.9833 35.852 19.7C36.1186 19.4 36.252 19.0833 36.252 18.75V11.375H33.102C32.4853 11.375 32.0186 11.5167 31.702 11.8C31.3853 12.0833 31.227 12.4833 31.227 13V18.5C31.227 19.0167 31.3853 19.4167 31.702 19.7C32.0186 19.9833 32.4853 20.125 33.102 20.125H34.627ZM47.1029 22C45.6363 22 44.5613 21.6917 43.8779 21.075C43.1946 20.4417 42.8529 19.4167 42.8529 18V13.5C42.8529 12.0667 43.1613 11.0417 43.7779 10.425C44.3946 9.80833 45.4196 9.5 46.8529 9.5H48.0279C49.2113 9.5 50.1029 9.83333 50.7029 10.5C51.3196 11.15 51.6279 12.1083 51.6279 13.375V16.625H44.9779V18.5C44.9779 19.0167 45.1363 19.4167 45.4529 19.7C45.7696 19.9833 46.2363 20.125 46.8529 20.125H50.8279V22H47.1029ZM49.5529 12.875C49.5529 12.4417 49.4113 12.0833 49.1279 11.8C48.8446 11.5167 48.4863 11.375 48.0529 11.375H46.6029C46.0029 11.375 45.5779 11.5167 45.3279 11.8C45.0946 12.0667 44.9779 12.4667 44.9779 13V14.75H49.5529V12.875ZM71.5049 22H69.4799V4.5H73.0299L76.9799 20.15V4.5H79.0049V22H75.4299L71.5049 6.35V22ZM91.4309 22C91.2142 22 90.9725 21.9333 90.7059 21.8C90.4559 21.6667 90.2392 21.4833 90.0559 21.25C89.6725 21.75 89.1642 22 88.5309 22H86.3059C85.0392 22 84.1142 21.75 83.5309 21.25C82.9642 20.7333 82.6809 19.8583 82.6809 18.625V18.125C82.6809 15.5417 83.8975 14.25 86.3309 14.25H89.4309V13C89.4309 12.4833 89.2725 12.0833 88.9559 11.8C88.6392 11.5167 88.1725 11.375 87.5559 11.375H83.6809V9.5H87.3059C88.7559 9.5 89.8225 9.81667 90.5059 10.45C91.2059 11.0833 91.5559 12.1 91.5559 13.5V19.5C91.5559 19.75 91.6475 19.9417 91.8309 20.075C92.0309 20.1917 92.3559 20.25 92.8059 20.25V22H91.4309ZM88.2809 20.125C88.7809 20.125 89.0975 20.0083 89.2309 19.775C89.3642 19.5417 89.4309 19.2417 89.4309 18.875V16.125H86.3059C85.8725 16.125 85.5142 16.2667 85.2309 16.55C84.9475 16.8333 84.8059 17.1917 84.8059 17.625V18.875C84.8059 19.3083 84.9059 19.625 85.1059 19.825C85.3059 20.025 85.6225 20.125 86.0559 20.125H88.2809ZM97.4568 9.5V10.075C97.8902 9.69167 98.4068 9.5 99.0068 9.5H99.1568C100.324 9.5 101.149 9.83333 101.632 10.5C102.182 9.83333 102.907 9.5 103.807 9.5H103.957C104.974 9.5 105.724 9.75833 106.207 10.275C106.69 10.7917 106.932 11.7083 106.932 13.025V22H104.932V13C104.932 12.3167 104.857 11.8417 104.707 11.575C104.574 11.3083 104.257 11.175 103.757 11.175H103.607C103.107 11.175 102.757 11.35 102.557 11.7C102.374 12.0333 102.274 12.4083 102.257 12.825V22H100.257V13C100.257 12.3 100.174 11.825 100.007 11.575C99.8402 11.3083 99.5402 11.175 99.1068 11.175H98.9568C98.4568 11.175 98.1068 11.325 97.9068 11.625C97.7068 11.9083 97.5985 12.2333 97.5818 12.6V22H95.5818V9.5H97.4568ZM114.608 22C113.141 22 112.066 21.6917 111.383 21.075C110.699 20.4417 110.358 19.4167 110.358 18V13.5C110.358 12.0667 110.666 11.0417 111.283 10.425C111.899 9.80833 112.924 9.5 114.358 9.5H115.533C116.716 9.5 117.608 9.83333 118.208 10.5C118.824 11.15 119.133 12.1083 119.133 13.375V16.625H112.483V18.5C112.483 19.0167 112.641 19.4167 112.958 19.7C113.274 19.9833 113.741 20.125 114.358 20.125H118.333V22H114.608ZM117.058 12.875C117.058 12.4417 116.916 12.0833 116.633 11.8C116.349 11.5167 115.991 11.375 115.558 11.375H114.108C113.508 11.375 113.083 11.5167 112.833 11.8C112.599 12.0667 112.483 12.4667 112.483 13V14.75H117.058V12.875Z" fill="#FF0000"/>
<path d="M3.875 20.95L3.19212 21.6805L3.20031 21.6882L3.20867 21.6957L3.875 20.95ZM3.875 5.575L4.54927 6.31349L4.55001 6.3128L3.875 5.575ZM10.775 4.5H11.775V3.5H10.775V4.5ZM10.775 6.4V7.4H11.775V6.4H10.775ZM5.475 6.95L4.78378 6.22736L4.78378 6.22736L5.475 6.95ZM10.775 20.1H11.775V19.1H10.775V20.1ZM10.775 22V23H11.775V22H10.775ZM7.225 21C5.92702 21 5.08176 20.6873 4.54133 20.2043L3.20867 21.6957C4.2349 22.6127 5.62298 23 7.225 23V21ZM4.55788 20.2195C4.0569 19.7512 3.725 18.9905 3.725 17.75H1.725C1.725 19.3429 2.15976 20.7155 3.19212 21.6805L4.55788 20.2195ZM3.725 17.75V8.75H1.725V17.75H3.725ZM3.725 8.75C3.725 7.50783 4.05751 6.76248 4.54927 6.31349L3.20073 4.83651C2.15916 5.78752 1.725 7.15883 1.725 8.75H3.725ZM4.55001 6.3128C5.09063 5.8182 5.9325 5.5 7.225 5.5V3.5C5.6175 3.5 4.22604 3.89846 3.19999 4.83719L4.55001 6.3128ZM7.225 5.5H10.775V3.5H7.225V5.5ZM9.775 4.5V6.4H11.775V4.5H9.775ZM10.775 5.4H6.975V7.4H10.775V5.4ZM6.975 5.4C6.14574 5.4 5.38333 5.65388 4.78378 6.22736L6.16622 7.67264C6.33334 7.51279 6.57093 7.4 6.975 7.4V5.4ZM4.78378 6.22736C4.20915 6.777 3.9 7.4773 3.9 8.275H5.9C5.9 8.03936 5.97418 7.85633 6.16622 7.67264L4.78378 6.22736ZM3.9 8.275V18.225H5.9V8.275H3.9ZM3.9 18.225C3.9 19.0227 4.20915 19.723 4.78378 20.2726L6.16622 18.8274C5.97418 18.6437 5.9 18.4606 5.9 18.225H3.9ZM4.78378 20.2726C5.38333 20.8461 6.14574 21.1 6.975 21.1V19.1C6.57093 19.1 6.33334 18.9872 6.16622 18.8274L4.78378 20.2726ZM6.975 21.1H10.775V19.1H6.975V21.1ZM9.775 20.1V22H11.775V20.1H9.775ZM10.775 21H7.225V23H10.775V21ZM23.851 21.05L23.18 20.3084L23.1712 20.3166L23.851 21.05ZM16.601 21.05L15.9212 21.7835L15.9301 21.7915L16.601 21.05ZM16.601 10.45L15.93 9.70841L15.9212 9.71657L16.601 10.45ZM23.851 10.45L23.1712 11.1835L23.1801 11.1915L23.851 10.45ZM22.301 11.8L22.9678 11.0548L22.9678 11.0548L22.301 11.8ZM18.176 11.8L17.5092 11.0548L17.5092 11.0548L18.176 11.8ZM18.176 19.7L17.5092 20.4452L17.5092 20.4452L18.176 19.7ZM22.301 19.7L22.9678 20.4452L22.9678 20.4452L22.301 19.7ZM23.901 18C23.901 19.2551 23.5865 19.9407 23.1801 20.3085L24.5219 21.7915C25.5154 20.8926 25.901 19.5449 25.901 18H23.901ZM23.1712 20.3166C22.7524 20.7048 21.9839 21 20.651 21V23C22.2181 23 23.5829 22.6619 24.5307 21.7834L23.1712 20.3166ZM20.651 21H19.826V23H20.651V21ZM19.826 21C18.4957 21 17.7111 20.7059 17.2719 20.3085L15.9301 21.7915C16.8908 22.6608 18.2562 23 19.826 23V21ZM17.2807 20.3166C16.8855 19.9502 16.576 19.2614 16.576 18H14.576C14.576 19.5386 14.9498 20.8831 15.9212 21.7834L17.2807 20.3166ZM16.576 18V13.5H14.576V18H16.576ZM16.576 13.5C16.576 12.2386 16.8855 11.5498 17.2807 11.1834L15.9212 9.71657C14.9498 10.6169 14.576 11.9614 14.576 13.5H16.576ZM17.2719 11.1915C17.7111 10.7941 18.4957 10.5 19.826 10.5V8.5C18.2562 8.5 16.8908 8.83919 15.9301 9.70846L17.2719 11.1915ZM19.826 10.5H20.651V8.5H19.826V10.5ZM20.651 10.5C21.9839 10.5 22.7524 10.7952 23.1712 11.1834L24.5307 9.71657C23.5829 8.83808 22.2181 8.5 20.651 8.5V10.5ZM23.1801 11.1915C23.5865 11.5593 23.901 12.2449 23.901 13.5H25.901C25.901 11.9551 25.5154 10.6074 24.5219 9.70846L23.1801 11.1915ZM23.901 13.5V18H25.901V13.5H23.901ZM23.776 13C23.776 12.2655 23.5415 11.5681 22.9678 11.0548L21.6342 12.5452C21.6938 12.5985 21.776 12.7012 21.776 13H23.776ZM22.9678 11.0548C22.4 10.5467 21.6543 10.375 20.901 10.375V12.375C21.381 12.375 21.5686 12.4866 21.6342 12.5452L22.9678 11.0548ZM20.901 10.375H19.576V12.375H20.901V10.375ZM19.576 10.375C18.8226 10.375 18.077 10.5467 17.5092 11.0548L18.8428 12.5452C18.9083 12.4866 19.096 12.375 19.576 12.375V10.375ZM17.5092 11.0548C16.9354 11.5681 16.701 12.2655 16.701 13H18.701C18.701 12.7012 18.7832 12.5985 18.8428 12.5452L17.5092 11.0548ZM16.701 13V18.5H18.701V13H16.701ZM16.701 18.5C16.701 19.2345 16.9354 19.9319 17.5092 20.4452L18.8428 18.9548C18.7832 18.9015 18.701 18.7988 18.701 18.5H16.701ZM17.5092 20.4452C18.077 20.9533 18.8226 21.125 19.576 21.125V19.125C19.096 19.125 18.9083 19.0134 18.8428 18.9548L17.5092 20.4452ZM19.576 21.125H20.901V19.125H19.576V21.125ZM20.901 21.125C21.6543 21.125 22.4 20.9533 22.9678 20.4452L21.6342 18.9548C21.5686 19.0134 21.381 19.125 20.901 19.125V21.125ZM22.9678 20.4452C23.5415 19.9319 23.776 19.2345 23.776 18.5H21.776C21.776 18.7988 21.6938 18.9015 21.6342 18.9548L22.9678 20.4452ZM23.776 18.5V13H21.776V18.5H23.776ZM36.377 21.425H37.377V19.5091L35.8052 20.6046L36.377 21.425ZM30.127 21.075L29.4471 21.8085L29.457 21.8174L30.127 21.075ZM30.127 10.45L29.456 9.70841L29.4472 9.71657L30.127 10.45ZM36.252 9.5V10.5H37.252V9.5H36.252ZM36.252 4.5V3.5H35.252V4.5H36.252ZM38.377 4.5H39.377V3.5H38.377V4.5ZM38.377 22V23H39.377V22H38.377ZM36.377 22H35.377V23H36.377V22ZM35.852 19.7L36.5802 20.3854L36.5899 20.375L36.5994 20.3644L35.852 19.7ZM36.252 11.375H37.252V10.375H36.252V11.375ZM31.702 11.8L31.0352 11.0548L31.0352 11.0548L31.702 11.8ZM31.702 19.7L31.0352 20.4452L31.0352 20.4452L31.702 19.7ZM35.8052 20.6046C35.4498 20.8523 34.9912 21 34.377 21V23C35.3294 23 36.2041 22.7644 36.9487 22.2454L35.8052 20.6046ZM34.377 21H33.352V23H34.377V21ZM33.352 21C31.9933 21 31.2142 20.7092 30.7969 20.3326L29.457 21.8174C30.4064 22.6742 31.7773 23 33.352 23V21ZM30.8067 20.3416C30.4135 19.9771 30.102 19.2824 30.102 18H28.102C28.102 19.5509 28.4737 20.9062 29.4472 21.8084L30.8067 20.3416ZM30.102 18V13.5H28.102V18H30.102ZM30.102 13.5C30.102 12.2386 30.4114 11.5498 30.8067 11.1834L29.4472 9.71657C28.4758 10.6169 28.102 11.9614 28.102 13.5H30.102ZM30.7979 11.1915C31.2371 10.7941 32.0217 10.5 33.352 10.5V8.5C31.7822 8.5 30.4168 8.83919 29.456 9.70846L30.7979 11.1915ZM33.352 10.5H36.252V8.5H33.352V10.5ZM37.252 9.5V4.5H35.252V9.5H37.252ZM36.252 5.5H38.377V3.5H36.252V5.5ZM37.377 4.5V22H39.377V4.5H37.377ZM38.377 21H36.377V23H38.377V21ZM37.377 22V21.425H35.377V22H37.377ZM34.627 21.125C35.3363 21.125 36.0573 20.9409 36.5802 20.3854L35.1238 19.0146C35.1133 19.0258 35.0176 19.125 34.627 19.125V21.125ZM36.5994 20.3644C36.9938 19.9206 37.252 19.3761 37.252 18.75H35.252C35.252 18.7905 35.2434 18.8794 35.1045 19.0356L36.5994 20.3644ZM37.252 18.75V11.375H35.252V18.75H37.252ZM36.252 10.375H33.102V12.375H36.252V10.375ZM33.102 10.375C32.3486 10.375 31.603 10.5467 31.0352 11.0548L32.3687 12.5452C32.4343 12.4866 32.622 12.375 33.102 12.375V10.375ZM31.0352 11.0548C30.4614 11.5681 30.227 12.2655 30.227 13H32.227C32.227 12.7012 32.3092 12.5985 32.3687 12.5452L31.0352 11.0548ZM30.227 13V18.5H32.227V13H30.227ZM30.227 18.5C30.227 19.2345 30.4614 19.9319 31.0352 20.4452L32.3687 18.9548C32.3092 18.9015 32.227 18.7988 32.227 18.5H30.227ZM31.0352 20.4452C31.603 20.9533 32.3486 21.125 33.102 21.125V19.125C32.622 19.125 32.4343 19.0134 32.3687 18.9548L31.0352 20.4452ZM33.102 21.125H34.627V19.125H33.102V21.125ZM43.8779 21.075L43.1981 21.8085L43.208 21.8174L43.8779 21.075ZM43.7779 10.425L43.0708 9.71789L43.0708 9.71789L43.7779 10.425ZM50.7029 10.5L49.9596 11.169L49.9684 11.1787L49.9775 11.1883L50.7029 10.5ZM51.6279 16.625V17.625H52.6279V16.625H51.6279ZM44.9779 16.625V15.625H43.9779V16.625H44.9779ZM45.4529 19.7L46.1197 18.9548L46.1197 18.9548L45.4529 19.7ZM50.8279 20.125H51.8279V19.125H50.8279V20.125ZM50.8279 22V23H51.8279V22H50.8279ZM49.1279 11.8L49.835 11.0929L49.835 11.0929L49.1279 11.8ZM45.3279 11.8L44.5781 11.1384L44.5754 11.1415L45.3279 11.8ZM44.9779 14.75H43.9779V15.75H44.9779V14.75ZM49.5529 14.75V15.75H50.5529V14.75H49.5529ZM47.1029 21C45.7443 21 44.9651 20.7092 44.5479 20.3326L43.208 21.8174C44.1574 22.6742 45.5283 23 47.1029 23V21ZM44.5577 20.3416C44.1645 19.9771 43.8529 19.2824 43.8529 18H41.8529C41.8529 19.5509 42.2247 20.9062 43.1982 21.8084L44.5577 20.3416ZM43.8529 18V13.5H41.8529V18H43.8529ZM43.8529 13.5C43.8529 12.1695 44.1459 11.4713 44.485 11.1321L43.0708 9.71789C42.1767 10.612 41.8529 11.9638 41.8529 13.5H43.8529ZM44.485 11.1321C44.8242 10.7929 45.5224 10.5 46.8529 10.5V8.5C45.3168 8.5 43.965 8.82374 43.0708 9.71789L44.485 11.1321ZM46.8529 10.5H48.0279V8.5H46.8529V10.5ZM48.0279 10.5C49.0233 10.5 49.6049 10.7748 49.9596 11.169L51.4462 9.83103C50.6009 8.89182 49.3993 8.5 48.0279 8.5V10.5ZM49.9775 11.1883C50.3562 11.5875 50.6279 12.2581 50.6279 13.375H52.6279C52.6279 11.9585 52.283 10.7125 51.4284 9.81174L49.9775 11.1883ZM50.6279 13.375V16.625H52.6279V13.375H50.6279ZM51.6279 15.625H44.9779V17.625H51.6279V15.625ZM43.9779 16.625V18.5H45.9779V16.625H43.9779ZM43.9779 18.5C43.9779 19.2345 44.2124 19.9319 44.7861 20.4452L46.1197 18.9548C46.0601 18.9015 45.9779 18.7988 45.9779 18.5H43.9779ZM44.7861 20.4452C45.3539 20.9533 46.0996 21.125 46.8529 21.125V19.125C46.3729 19.125 46.1853 19.0134 46.1197 18.9548L44.7861 20.4452ZM46.8529 21.125H50.8279V19.125H46.8529V21.125ZM49.8279 20.125V22H51.8279V20.125H49.8279ZM50.8279 21H47.1029V23H50.8279V21ZM50.5529 12.875C50.5529 12.2003 50.3221 11.58 49.835 11.0929L48.4208 12.5071C48.5004 12.5867 48.5529 12.683 48.5529 12.875H50.5529ZM49.835 11.0929C49.348 10.6058 48.7276 10.375 48.0529 10.375V12.375C48.2449 12.375 48.3412 12.4275 48.4208 12.5071L49.835 11.0929ZM48.0529 10.375H46.6029V12.375H48.0529V10.375ZM46.6029 10.375C45.8821 10.375 45.1054 10.5407 44.5781 11.1384L46.0778 12.4616C46.0504 12.4926 46.1238 12.375 46.6029 12.375V10.375ZM44.5754 11.1415C44.1188 11.6633 43.9779 12.3429 43.9779 13H45.9779C45.9779 12.5904 46.0704 12.47 46.0805 12.4585L44.5754 11.1415ZM43.9779 13V14.75H45.9779V13H43.9779ZM44.9779 15.75H49.5529V13.75H44.9779V15.75ZM50.5529 14.75V12.875H48.5529V14.75H50.5529ZM71.5049 22V23H72.5049V22H71.5049ZM69.4799 22H68.4799V23H69.4799V22ZM69.4799 4.5V3.5H68.4799V4.5H69.4799ZM73.0299 4.5L73.9995 4.25528L73.8088 3.5H73.0299V4.5ZM76.9799 20.15L76.0103 20.3947L77.9799 20.15H76.9799ZM76.9799 4.5V3.5H75.9799V4.5H76.9799ZM79.0049 4.5H80.0049V3.5H79.0049V4.5ZM79.0049 22V23H80.0049V22H79.0049ZM75.4299 22L74.4599 22.2433L74.6497 23H75.4299V22ZM71.5049 6.35L72.4748 6.10673L70.5049 6.35H71.5049ZM71.5049 21H69.4799V23H71.5049V21ZM70.4799 22V4.5H68.4799V22H70.4799ZM69.4799 5.5H73.0299V3.5H69.4799V5.5ZM72.0603 4.74472L76.0103 20.3947L77.9495 19.9053L73.9995 4.25528L72.0603 4.74472ZM77.9799 20.15V4.5H75.9799V20.15H77.9799ZM76.9799 5.5H79.0049V3.5H76.9799V5.5ZM78.0049 4.5V22H80.0049V4.5H78.0049ZM79.0049 21H75.4299V23H79.0049V21ZM76.3998 21.7567L72.4748 6.10673L70.5349 6.59326L74.4599 22.2433L76.3998 21.7567ZM70.5049 6.35V22H72.5049V6.35H70.5049ZM90.7059 21.8L90.2353 22.6824L90.2469 22.6885L90.2586 22.6944L90.7059 21.8ZM90.0559 21.25L90.8422 20.6322L90.0462 19.6191L89.2623 20.6416L90.0559 21.25ZM83.5309 21.25L82.8571 21.989L82.8684 21.9993L82.8801 22.0093L83.5309 21.25ZM89.4309 14.25V15.25H90.4309V14.25H89.4309ZM88.9559 11.8L89.6227 11.0548L88.9559 11.8ZM83.6809 11.375H82.6809V12.375H83.6809V11.375ZM83.6809 9.5V8.5H82.6809V9.5H83.6809ZM90.5059 10.45L89.826 11.1835L89.8349 11.1915L90.5059 10.45ZM91.8309 20.075L91.2427 20.8837L91.2835 20.9134L91.327 20.9388L91.8309 20.075ZM92.8059 20.25H93.8059V19.25H92.8059V20.25ZM92.8059 22V23H93.8059V22H92.8059ZM89.2309 19.775L90.0991 20.2711L90.0991 20.2711L89.2309 19.775ZM89.4309 16.125H90.4309V15.125H89.4309V16.125ZM85.2309 16.55L85.938 17.2571L85.938 17.2571L85.2309 16.55ZM85.1059 19.825L84.3988 20.5321L84.3988 20.5321L85.1059 19.825ZM91.4309 21C91.4165 21 91.3303 20.9942 91.1531 20.9056L90.2586 22.6944C90.6148 22.8725 91.0118 23 91.4309 23V21ZM91.1764 20.9176C91.0547 20.8527 90.9439 20.7617 90.8422 20.6322L89.2695 21.8678C89.5345 22.205 89.857 22.4806 90.2353 22.6824L91.1764 20.9176ZM89.2623 20.6416C89.0693 20.8932 88.8551 21 88.5309 21V23C89.4733 23 90.2757 22.6068 90.8495 21.8584L89.2623 20.6416ZM88.5309 21H86.3059V23H88.5309V21ZM86.3059 21C85.134 21 84.4983 20.7621 84.1817 20.4907L82.8801 22.0093C83.7301 22.7379 84.9444 23 86.3059 23V21ZM84.2046 20.511C83.9433 20.2727 83.6809 19.7437 83.6809 18.625H81.6809C81.6809 19.9729 81.9851 21.1939 82.8571 21.989L84.2046 20.511ZM83.6809 18.625V18.125H81.6809V18.625H83.6809ZM83.6809 18.125C83.6809 16.9731 83.9533 16.2951 84.3213 15.9044C84.6787 15.5249 85.2841 15.25 86.3309 15.25V13.25C84.9442 13.25 83.7247 13.6209 82.8654 14.5331C82.0168 15.434 81.6809 16.6936 81.6809 18.125H83.6809ZM86.3309 15.25H89.4309V13.25H86.3309V15.25ZM90.4309 14.25V13H88.4309V14.25H90.4309ZM90.4309 13C90.4309 12.2655 90.1964 11.5681 89.6227 11.0548L88.2891 12.5452C88.3486 12.5985 88.4309 12.7012 88.4309 13H90.4309ZM89.6227 11.0548C89.0549 10.5467 88.3092 10.375 87.5559 10.375V12.375C88.0358 12.375 88.2235 12.4866 88.2891 12.5452L89.6227 11.0548ZM87.5559 10.375H83.6809V12.375H87.5559V10.375ZM84.6809 11.375V9.5H82.6809V11.375H84.6809ZM83.6809 10.5H87.3059V8.5H83.6809V10.5ZM87.3059 10.5C88.6388 10.5 89.4073 10.7952 89.8261 11.1834L91.1856 9.71657C90.2378 8.83808 88.8729 8.5 87.3059 8.5V10.5ZM89.8349 11.1915C90.2414 11.5593 90.5559 12.2449 90.5559 13.5H92.5559C92.5559 11.9551 92.1703 10.6074 91.1768 9.70846L89.8349 11.1915ZM90.5559 13.5V19.5H92.5559V13.5H90.5559ZM90.5559 19.5C90.5559 20.0318 90.7712 20.5409 91.2427 20.8837L92.419 19.2663C92.4525 19.2906 92.4961 19.3357 92.5267 19.3998C92.5558 19.4605 92.5559 19.5019 92.5559 19.5H90.5559ZM91.327 20.9388C91.7664 21.1951 92.3171 21.25 92.8059 21.25V19.25C92.6204 19.25 92.4888 19.2377 92.4013 19.222C92.309 19.2054 92.3004 19.1912 92.3347 19.2112L91.327 20.9388ZM91.8059 20.25V22H93.8059V20.25H91.8059ZM92.8059 21H91.4309V23H92.8059V21ZM88.2809 21.125C88.835 21.125 89.6758 21.0119 90.0991 20.2711L88.3626 19.2789C88.398 19.217 88.442 19.1703 88.4825 19.1388C88.5208 19.109 88.5475 19.0992 88.5477 19.0992C88.548 19.099 88.5429 19.1009 88.5314 19.1037C88.5199 19.1065 88.503 19.1099 88.4801 19.1132C88.4334 19.1198 88.3681 19.125 88.2809 19.125V21.125ZM90.0991 20.2711C90.3446 19.8415 90.4309 19.3549 90.4309 18.875H88.4309C88.4309 19.1284 88.3838 19.2418 88.3626 19.2789L90.0991 20.2711ZM90.4309 18.875V16.125H88.4309V18.875H90.4309ZM89.4309 15.125H86.3059V17.125H89.4309V15.125ZM86.3059 15.125C85.6312 15.125 85.0108 15.3558 84.5238 15.8429L85.938 17.2571C86.0175 17.1775 86.1139 17.125 86.3059 17.125V15.125ZM84.5238 15.8429C84.0367 16.33 83.8059 16.9503 83.8059 17.625H85.8059C85.8059 17.433 85.8584 17.3367 85.938 17.2571L84.5238 15.8429ZM83.8059 17.625V18.875H85.8059V17.625H83.8059ZM83.8059 18.875C83.8059 19.4353 83.932 20.0654 84.3988 20.5321L85.813 19.1179C85.8448 19.1497 85.8445 19.1682 85.8344 19.1364C85.8229 19.0999 85.8059 19.0188 85.8059 18.875H83.8059ZM84.3988 20.5321C84.8655 20.9989 85.4956 21.125 86.0559 21.125V19.125C85.912 19.125 85.8309 19.1079 85.7945 19.0964C85.7627 19.0864 85.7812 19.0861 85.813 19.1179L84.3988 20.5321ZM86.0559 21.125H88.2809V19.125H86.0559V21.125ZM97.4568 9.5H98.4568V8.5H97.4568V9.5ZM97.4568 10.075H96.4568V12.2947L98.1194 10.824L97.4568 10.075ZM101.632 10.5L100.822 11.087L101.581 12.1333L102.403 11.1364L101.632 10.5ZM106.207 10.275L106.937 9.59184L106.937 9.59184L106.207 10.275ZM106.932 22V23H107.932V22H106.932ZM104.932 22H103.932V23H104.932V22ZM104.707 11.575L103.812 12.0222L103.823 12.044L103.835 12.0653L104.707 11.575ZM102.557 11.7L101.689 11.2039L101.685 11.2109L101.681 11.2181L102.557 11.7ZM102.257 12.825L101.258 12.785L101.257 12.805V12.825H102.257ZM102.257 22V23H103.257V22H102.257ZM100.257 22H99.2568V23H100.257V22ZM100.007 11.575L99.1588 12.105L99.1666 12.1175L99.1748 12.1297L100.007 11.575ZM97.9068 11.625L98.7238 12.2017L98.7315 12.1908L98.7389 12.1797L97.9068 11.625ZM97.5818 12.6L96.5829 12.5546L96.5818 12.5773V12.6H97.5818ZM97.5818 22V23H98.5818V22H97.5818ZM95.5818 22H94.5818V23H95.5818V22ZM95.5818 9.5V8.5H94.5818V9.5H95.5818ZM96.4568 9.5V10.075H98.4568V9.5H96.4568ZM98.1194 10.824C98.3626 10.6088 98.641 10.5 99.0068 10.5V8.5C98.1727 8.5 97.4177 8.77449 96.7943 9.326L98.1194 10.824ZM99.0068 10.5H99.1568V8.5H99.0068V10.5ZM99.1568 10.5C100.146 10.5 100.597 10.7768 100.822 11.087L102.441 9.91303C101.7 8.88984 100.501 8.5 99.1568 8.5V10.5ZM102.403 11.1364C102.754 10.7107 103.191 10.5 103.807 10.5V8.5C102.623 8.5 101.609 8.95594 100.86 9.86362L102.403 11.1364ZM103.807 10.5H103.957V8.5H103.807V10.5ZM103.957 10.5C104.82 10.5 105.252 10.7186 105.477 10.9582L106.937 9.59184C106.195 8.79809 105.127 8.5 103.957 8.5V10.5ZM105.477 10.9582C105.688 11.1846 105.932 11.7675 105.932 13.025H107.932C107.932 11.6491 107.692 10.3988 106.937 9.59184L105.477 10.9582ZM105.932 13.025V22H107.932V13.025H105.932ZM106.932 21H104.932V23H106.932V21ZM105.932 22V13H103.932V22H105.932ZM105.932 13C105.932 12.308 105.867 11.5978 105.578 11.0847L103.835 12.0653C103.828 12.053 103.859 12.1078 103.888 12.2872C103.915 12.4567 103.932 12.6907 103.932 13H105.932ZM105.601 11.1278C105.204 10.333 104.363 10.175 103.757 10.175V12.175C103.839 12.175 103.897 12.1805 103.936 12.1869C103.976 12.1934 103.988 12.1994 103.981 12.1966C103.973 12.1933 103.944 12.1797 103.908 12.1474C103.87 12.1137 103.837 12.0705 103.812 12.0222L105.601 11.1278ZM103.757 10.175H103.607V12.175H103.757V10.175ZM103.607 10.175C102.849 10.175 102.112 10.4636 101.689 11.2039L103.425 12.1961C103.43 12.1875 103.431 12.1886 103.425 12.1937C103.42 12.1989 103.416 12.2012 103.417 12.2007C103.42 12.1992 103.47 12.175 103.607 12.175V10.175ZM101.681 11.2181C101.416 11.6999 101.28 12.2286 101.258 12.785L103.256 12.865C103.267 12.588 103.331 12.3668 103.433 12.1819L101.681 11.2181ZM101.257 12.825V22H103.257V12.825H101.257ZM102.257 21H100.257V23H102.257V21ZM101.257 22V13H99.2568V22H101.257ZM101.257 13C101.257 12.6155 101.234 12.2597 101.179 11.946C101.126 11.645 101.032 11.3095 100.839 11.0203L99.1748 12.1297C99.1487 12.0905 99.1789 12.1175 99.2094 12.2915C99.2377 12.4528 99.2568 12.6845 99.2568 13H101.257ZM100.855 11.045C100.44 10.3815 99.7406 10.175 99.1068 10.175V12.175C99.1646 12.175 99.2039 12.1795 99.228 12.1839C99.2517 12.1882 99.2574 12.1918 99.2507 12.1888C99.2431 12.1854 99.2262 12.1765 99.206 12.1593C99.1856 12.1417 99.1696 12.1223 99.1588 12.105L100.855 11.045ZM99.1068 10.175H98.9568V12.175H99.1068V10.175ZM98.9568 10.175C98.2637 10.175 97.5269 10.3922 97.0748 11.0703L98.7389 12.1797C98.7347 12.186 98.7274 12.1946 98.7182 12.2021C98.7094 12.2093 98.7058 12.2098 98.7133 12.2066C98.7314 12.1989 98.8019 12.175 98.9568 12.175V10.175ZM97.0899 11.0483C96.7732 11.497 96.6077 12.0088 96.5829 12.5546L98.5808 12.6454C98.5893 12.4579 98.6405 12.3197 98.7238 12.2017L97.0899 11.0483ZM96.5818 12.6V22H98.5818V12.6H96.5818ZM97.5818 21H95.5818V23H97.5818V21ZM96.5818 22V9.5H94.5818V22H96.5818ZM95.5818 10.5H97.4568V8.5H95.5818V10.5ZM111.383 21.075L110.703 21.8085L110.713 21.8174L111.383 21.075ZM111.283 10.425L110.576 9.71789L110.576 9.71789L111.283 10.425ZM118.208 10.5L117.465 11.169L117.473 11.1787L117.482 11.1883L118.208 10.5ZM119.133 16.625V17.625H120.133V16.625H119.133ZM112.483 16.625V15.625H111.483V16.625H112.483ZM112.958 19.7L113.625 18.9548L113.625 18.9548L112.958 19.7ZM118.333 20.125H119.333V19.125H118.333V20.125ZM118.333 22V23H119.333V22H118.333ZM116.633 11.8L117.34 11.0929L117.34 11.0929L116.633 11.8ZM112.833 11.8L112.083 11.1384L112.08 11.1415L112.833 11.8ZM112.483 14.75H111.483V15.75H112.483V14.75ZM117.058 14.75V15.75H118.058V14.75H117.058ZM114.608 21C113.249 21 112.47 20.7092 112.053 20.3326L110.713 21.8174C111.662 22.6742 113.033 23 114.608 23V21ZM112.063 20.3416C111.669 19.9771 111.358 19.2824 111.358 18H109.358C109.358 19.5509 109.73 20.9062 110.703 21.8084L112.063 20.3416ZM111.358 18V13.5H109.358V18H111.358ZM111.358 13.5C111.358 12.1695 111.651 11.4713 111.99 11.1321L110.576 9.71789C109.682 10.612 109.358 11.9638 109.358 13.5H111.358ZM111.99 11.1321C112.329 10.7929 113.027 10.5 114.358 10.5V8.5C112.822 8.5 111.47 8.82374 110.576 9.71789L111.99 11.1321ZM114.358 10.5H115.533V8.5H114.358V10.5ZM115.533 10.5C116.528 10.5 117.11 10.7748 117.465 11.169L118.951 9.83103C118.106 8.89182 116.904 8.5 115.533 8.5V10.5ZM117.482 11.1883C117.861 11.5875 118.133 12.2581 118.133 13.375H120.133C120.133 11.9585 119.788 10.7125 118.933 9.81174L117.482 11.1883ZM118.133 13.375V16.625H120.133V13.375H118.133ZM119.133 15.625H112.483V17.625H119.133V15.625ZM111.483 16.625V18.5H113.483V16.625H111.483ZM111.483 18.5C111.483 19.2345 111.717 19.9319 112.291 20.4452L113.625 18.9548C113.565 18.9015 113.483 18.7988 113.483 18.5H111.483ZM112.291 20.4452C112.859 20.9533 113.604 21.125 114.358 21.125V19.125C113.878 19.125 113.69 19.0134 113.625 18.9548L112.291 20.4452ZM114.358 21.125H118.333V19.125H114.358V21.125ZM117.333 20.125V22H119.333V20.125H117.333ZM118.333 21H114.608V23H118.333V21ZM118.058 12.875C118.058 12.2003 117.827 11.58 117.34 11.0929L115.926 12.5071C116.005 12.5867 116.058 12.683 116.058 12.875H118.058ZM117.34 11.0929C116.853 10.6058 116.233 10.375 115.558 10.375V12.375C115.75 12.375 115.846 12.4275 115.926 12.5071L117.34 11.0929ZM115.558 10.375H114.108V12.375H115.558V10.375ZM114.108 10.375C113.387 10.375 112.61 10.5407 112.083 11.1384L113.583 12.4616C113.555 12.4926 113.629 12.375 114.108 12.375V10.375ZM112.08 11.1415C111.624 11.6633 111.483 12.3429 111.483 13H113.483C113.483 12.5904 113.575 12.47 113.585 12.4585L112.08 11.1415ZM111.483 13V14.75H113.483V13H111.483ZM112.483 15.75H117.058V13.75H112.483V15.75ZM118.058 14.75V12.875H116.058V14.75H118.058Z" fill="#FF0000"/>
<path d="M31.57 59.9C31.57 63.68 30.5667 66.48 28.56 68.3C26.5533 70.0733 23.59 70.96 19.67 70.96H12.39V90H6.3V41H19.53C23.4967 41 26.4833 41.8867 28.49 43.66C30.5433 45.3867 31.57 48.14 31.57 51.92V59.9ZM25.48 51.29C25.48 49.5167 25.06 48.2333 24.22 47.44C23.4267 46.6467 22.1433 46.25 20.37 46.25H12.39V65.71H20.37C22.1433 65.71 23.4267 65.3133 24.22 64.52C25.06 63.68 25.48 62.3733 25.48 60.6V51.29ZM66.9927 90C66.3861 90 65.7094 89.8133 64.9627 89.44C64.2627 89.0667 63.6561 88.5533 63.1427 87.9C62.0694 89.3 60.6461 90 58.8727 90H52.6427C49.0961 90 46.5061 89.3 44.8727 87.9C43.2861 86.4533 42.4927 84.0033 42.4927 80.55V79.15C42.4927 71.9167 45.8994 68.3 52.7127 68.3H61.3927V64.8C61.3927 63.3533 60.9494 62.2333 60.0627 61.44C59.1761 60.6467 57.8694 60.25 56.1427 60.25H45.2927V55H55.4427C59.5027 55 62.4894 55.8867 64.4027 57.66C66.3627 59.4333 67.3427 62.28 67.3427 66.2V83C67.3427 83.7 67.5994 84.2367 68.1127 84.61C68.6727 84.9367 69.5827 85.1 70.8427 85.1V90H66.9927ZM58.1727 84.75C59.5727 84.75 60.4594 84.4233 60.8327 83.77C61.2061 83.1167 61.3927 82.2767 61.3927 81.25V73.55H52.6427C51.4294 73.55 50.4261 73.9467 49.6327 74.74C48.8394 75.5333 48.4427 76.5367 48.4427 77.75V81.25C48.4427 82.4633 48.7227 83.35 49.2827 83.91C49.8427 84.47 50.7294 84.75 51.9427 84.75H58.1727ZM87.7155 84.75V60.25H82.6055V55H93.3155V56.89C94.8555 55.63 96.7221 55 98.9155 55H106.125V60.6H98.2155C96.7221 60.6 95.6021 61.09 94.8555 62.07C94.1088 63.0033 93.7121 63.96 93.6655 64.94V84.75H101.295V90H82.6055V84.75H87.7155ZM142.598 90C141.992 90 141.315 89.8133 140.568 89.44C139.868 89.0667 139.262 88.5533 138.748 87.9C137.675 89.3 136.252 90 134.478 90H128.248C124.702 90 122.112 89.3 120.478 87.9C118.892 86.4533 118.098 84.0033 118.098 80.55V79.15C118.098 71.9167 121.505 68.3 128.318 68.3H136.998V64.8C136.998 63.3533 136.555 62.2333 135.668 61.44C134.782 60.6467 133.475 60.25 131.748 60.25H120.898V55H131.048C135.108 55 138.095 55.8867 140.008 57.66C141.968 59.4333 142.948 62.28 142.948 66.2V83C142.948 83.7 143.205 84.2367 143.718 84.61C144.278 84.9367 145.188 85.1 146.448 85.1V90H142.598ZM133.778 84.75C135.178 84.75 136.065 84.4233 136.438 83.77C136.812 83.1167 136.998 82.2767 136.998 81.25V73.55H128.248C127.035 73.55 126.032 73.9467 125.238 74.74C124.445 75.5333 124.048 76.5367 124.048 77.75V81.25C124.048 82.4633 124.328 83.35 124.888 83.91C125.448 84.47 126.335 84.75 127.548 84.75H133.778ZM177.461 88.39C175.921 89.4633 174.054 90 171.861 90H168.991C164.884 90 161.874 89.1367 159.961 87.41C158.048 85.6367 157.091 82.7667 157.091 78.8V66.2C157.091 62.28 158.048 59.4333 159.961 57.66C161.921 55.8867 164.931 55 168.991 55H177.111V41H183.061V90H177.461V88.39ZM172.561 84.75C174.101 84.75 175.244 84.3533 175.991 83.56C176.738 82.72 177.111 81.8333 177.111 80.9V60.25H168.291C166.564 60.25 165.258 60.6467 164.371 61.44C163.484 62.2333 163.041 63.3533 163.041 64.8V80.2C163.041 81.6467 163.484 82.7667 164.371 83.56C165.258 84.3533 166.564 84.75 168.291 84.75H172.561ZM211.204 41V47.3H204.554V41H211.204ZM194.614 60.25V55H210.854V84.75H221.214V90H204.904V60.25H194.614ZM256.356 81.25C256.356 84.19 255.446 86.3833 253.626 87.83C251.853 89.2767 249.263 90 245.856 90H235.426V84.75H246.556C247.816 84.75 248.773 84.4933 249.426 83.98C250.08 83.42 250.406 82.6267 250.406 81.6V77.89C250.406 75.79 249.403 74.74 247.396 74.74H244.806C241.54 74.74 239.09 74.04 237.456 72.64C235.87 71.1933 235.076 68.93 235.076 65.85V63.82C235.076 60.6933 235.963 58.4533 237.736 57.1C239.51 55.7 242.123 55 245.576 55H254.956V60.25H244.876C243.71 60.25 242.776 60.53 242.076 61.09C241.376 61.6033 241.026 62.3733 241.026 63.4V65.92C241.026 66.9933 241.33 67.7867 241.936 68.3C242.59 68.8133 243.406 69.07 244.386 69.07H246.766C249.893 69.07 252.273 69.84 253.906 71.38C255.54 72.8733 256.356 75.1133 256.356 78.1V81.25ZM283.099 90C278.992 90 275.982 89.1367 274.069 87.41C272.156 85.6367 271.199 82.7667 271.199 78.8V66.2C271.199 62.1867 272.062 59.3167 273.789 57.59C275.516 55.8633 278.386 55 282.399 55H285.689C289.002 55 291.499 55.9333 293.179 57.8C294.906 59.62 295.769 62.3033 295.769 65.85V74.95H277.149V80.2C277.149 81.6467 277.592 82.7667 278.479 83.56C279.366 84.3533 280.672 84.75 282.399 84.75H293.529V90H283.099ZM289.959 64.45C289.959 63.2367 289.562 62.2333 288.769 61.44C287.976 60.6467 286.972 60.25 285.759 60.25H281.699C280.019 60.25 278.829 60.6467 278.129 61.44C277.476 62.1867 277.149 63.3067 277.149 64.8V69.7H289.959V64.45Z" fill="#FFE600"/>
<path d="M28.56 68.3L29.2223 69.0494L29.2318 69.0407L28.56 68.3ZM12.39 70.96V69.96H11.39V70.96H12.39ZM12.39 90V91H13.39V90H12.39ZM6.3 90H5.3V91H6.3V90ZM6.3 41V40H5.3V41H6.3ZM28.49 43.66L27.8278 44.4093L27.837 44.4175L27.8464 44.4254L28.49 43.66ZM24.22 47.44L23.5129 48.1471L23.523 48.1572L23.5334 48.167L24.22 47.44ZM12.39 46.25V45.25H11.39V46.25H12.39ZM12.39 65.71H11.39V66.71H12.39V65.71ZM24.22 64.52L23.5129 63.8129L23.5129 63.8129L24.22 64.52ZM30.57 59.9C30.57 63.513 29.6136 65.9944 27.8882 67.5593L29.2318 69.0407C31.5198 66.9656 32.57 63.847 32.57 59.9H30.57ZM27.8978 67.5507C26.1427 69.1017 23.4569 69.96 19.67 69.96V71.96C23.7231 71.96 26.964 71.045 29.2222 69.0493L27.8978 67.5507ZM19.67 69.96H12.39V71.96H19.67V69.96ZM11.39 70.96V90H13.39V70.96H11.39ZM12.39 89H6.3V91H12.39V89ZM7.3 90V41H5.3V90H7.3ZM6.3 42H19.53V40H6.3V42ZM19.53 42C23.3672 42 26.0746 42.8599 27.8278 44.4093L29.1522 42.9107C26.8921 40.9134 23.6261 40 19.53 40V42ZM27.8464 44.4254C29.5926 45.8937 30.57 48.3095 30.57 51.92H32.57C32.57 47.9705 31.4941 44.8796 29.1336 42.8946L27.8464 44.4254ZM30.57 51.92V59.9H32.57V51.92H30.57ZM26.48 51.29C26.48 49.3869 26.0322 47.776 24.9066 46.713L23.5334 48.167C24.0878 48.6906 24.48 49.6464 24.48 51.29H26.48ZM24.9271 46.7329C23.8622 45.668 22.2596 45.25 20.37 45.25V47.25C22.0271 47.25 22.9912 47.6254 23.5129 48.1471L24.9271 46.7329ZM20.37 45.25H12.39V47.25H20.37V45.25ZM11.39 46.25V65.71H13.39V46.25H11.39ZM12.39 66.71H20.37V64.71H12.39V66.71ZM20.37 66.71C22.2596 66.71 23.8622 66.292 24.9271 65.2271L23.5129 63.8129C22.9912 64.3346 22.0271 64.71 20.37 64.71V66.71ZM24.9271 65.2271C26.0297 64.1245 26.48 62.5091 26.48 60.6H24.48C24.48 62.2375 24.0903 63.2355 23.5129 63.8129L24.9271 65.2271ZM26.48 60.6V51.29H24.48V60.6H26.48ZM64.9627 89.44L64.4921 90.3224L64.5038 90.3285L64.5155 90.3344L64.9627 89.44ZM63.1427 87.9L63.9291 87.2822L63.133 86.2691L62.3491 87.2916L63.1427 87.9ZM44.8727 87.9L44.199 88.639L44.2103 88.6493L44.2219 88.6593L44.8727 87.9ZM61.3927 68.3V69.3H62.3927V68.3H61.3927ZM45.2927 60.25H44.2927V61.25H45.2927V60.25ZM45.2927 55V54H44.2927V55H45.2927ZM64.4027 57.66L63.7229 58.3935L63.7318 58.4015L64.4027 57.66ZM68.1127 84.61L67.5246 85.4187L67.5653 85.4484L67.6089 85.4738L68.1127 84.61ZM70.8427 85.1H71.8427V84.1H70.8427V85.1ZM70.8427 90V91H71.8427V90H70.8427ZM60.8327 83.77L61.701 84.2661L61.701 84.2661L60.8327 83.77ZM61.3927 73.55H62.3927V72.55H61.3927V73.55ZM49.6327 74.74L50.3398 75.4471L50.3398 75.4471L49.6327 74.74ZM49.2827 83.91L48.5756 84.6171L48.5756 84.6171L49.2827 83.91ZM66.9927 89C66.5884 89 66.0671 88.8742 65.4099 88.5456L64.5155 90.3344C65.3517 90.7525 66.1837 91 66.9927 91V89ZM65.4333 88.5576C64.8616 88.2527 64.3608 87.8317 63.9291 87.2822L62.3564 88.5178C62.9514 89.275 63.6639 89.8806 64.4921 90.3224L65.4333 88.5576ZM62.3491 87.2916C61.4662 88.4432 60.337 89 58.8727 89V91C60.9552 91 62.6726 90.1568 63.9363 88.5084L62.3491 87.2916ZM58.8727 89H52.6427V91H58.8727V89ZM52.6427 89C49.1908 89 46.8901 88.3121 45.5235 87.1407L44.2219 88.6593C46.122 90.2879 49.0013 91 52.6427 91V89ZM45.5465 87.161C44.2651 85.9927 43.4927 83.8887 43.4927 80.55H41.4927C41.4927 84.1179 42.307 86.9139 44.199 88.639L45.5465 87.161ZM43.4927 80.55V79.15H41.4927V80.55H43.4927ZM43.4927 79.15C43.4927 75.6731 44.3126 73.2514 45.7757 71.6982C47.2281 70.1562 49.476 69.3 52.7127 69.3V67.3C49.1361 67.3 46.274 68.2522 44.3198 70.3268C42.3762 72.3903 41.4927 75.3936 41.4927 79.15H43.4927ZM52.7127 69.3H61.3927V67.3H52.7127V69.3ZM62.3927 68.3V64.8H60.3927V68.3H62.3927ZM62.3927 64.8C62.3927 63.1355 61.8733 61.7181 60.7295 60.6948L59.3959 62.1852C60.0255 62.7485 60.3927 63.5712 60.3927 64.8H62.3927ZM60.7295 60.6948C59.5917 59.6767 58.0061 59.25 56.1427 59.25V61.25C57.7327 61.25 58.7604 61.6166 59.3959 62.1852L60.7295 60.6948ZM56.1427 59.25H45.2927V61.25H56.1427V59.25ZM46.2927 60.25V55H44.2927V60.25H46.2927ZM45.2927 56H55.4427V54H45.2927V56ZM55.4427 56C59.3857 56 62.0741 56.8652 63.723 58.3934L65.0825 56.9266C62.9047 54.9081 59.6198 54 55.4427 54V56ZM63.7318 58.4015C65.3983 59.9093 66.3427 62.4249 66.3427 66.2H68.3427C68.3427 62.1351 67.3272 58.9574 65.0736 56.9185L63.7318 58.4015ZM66.3427 66.2V83H68.3427V66.2H66.3427ZM66.3427 83C66.3427 83.9818 66.7231 84.8359 67.5246 85.4187L68.7009 83.8013C68.4757 83.6375 68.3427 83.4182 68.3427 83H66.3427ZM67.6089 85.4738C68.4083 85.9401 69.544 86.1 70.8427 86.1V84.1C69.6215 84.1 68.9371 83.9332 68.6166 83.7462L67.6089 85.4738ZM69.8427 85.1V90H71.8427V85.1H69.8427ZM70.8427 89H66.9927V91H70.8427V89ZM58.1727 85.75C59.6269 85.75 61.0377 85.4269 61.701 84.2661L59.9645 83.2739C59.8811 83.4198 59.5186 83.75 58.1727 83.75V85.75ZM61.701 84.2661C62.1865 83.4165 62.3927 82.3899 62.3927 81.25H60.3927C60.3927 82.1634 60.2257 82.8168 59.9645 83.2739L61.701 84.2661ZM62.3927 81.25V73.55H60.3927V81.25H62.3927ZM61.3927 72.55H52.6427V74.55H61.3927V72.55ZM52.6427 72.55C51.188 72.55 49.9227 73.0358 48.9256 74.0329L50.3398 75.4471C50.9294 74.8575 51.6708 74.55 52.6427 74.55V72.55ZM48.9256 74.0329C47.9285 75.03 47.4427 76.2953 47.4427 77.75H49.4427C49.4427 76.778 49.7503 76.0367 50.3398 75.4471L48.9256 74.0329ZM47.4427 77.75V81.25H49.4427V77.75H47.4427ZM47.4427 81.25C47.4427 82.5903 47.7489 83.7904 48.5756 84.6171L49.9898 83.2029C49.6966 82.9096 49.4427 82.3364 49.4427 81.25H47.4427ZM48.5756 84.6171C49.4024 85.4439 50.6024 85.75 51.9427 85.75V83.75C50.8564 83.75 50.2831 83.4961 49.9898 83.2029L48.5756 84.6171ZM51.9427 85.75H58.1727V83.75H51.9427V85.75ZM87.7155 84.75V85.75H88.7155V84.75H87.7155ZM87.7155 60.25H88.7155V59.25H87.7155V60.25ZM82.6055 60.25H81.6055V61.25H82.6055V60.25ZM82.6055 55V54H81.6055V55H82.6055ZM93.3155 55H94.3155V54H93.3155V55ZM93.3155 56.89H92.3155V59.0002L93.9487 57.664L93.3155 56.89ZM106.125 55H107.125V54H106.125V55ZM106.125 60.6V61.6H107.125V60.6H106.125ZM94.8555 62.07L95.6363 62.6947L95.6437 62.6855L95.6509 62.676L94.8555 62.07ZM93.6655 64.94L92.6666 64.8924L92.6655 64.9162V64.94H93.6655ZM93.6655 84.75H92.6655V85.75H93.6655V84.75ZM101.295 84.75H102.295V83.75H101.295V84.75ZM101.295 90V91H102.295V90H101.295ZM82.6055 90H81.6055V91H82.6055V90ZM82.6055 84.75V83.75H81.6055V84.75H82.6055ZM88.7155 84.75V60.25H86.7155V84.75H88.7155ZM87.7155 59.25H82.6055V61.25H87.7155V59.25ZM83.6055 60.25V55H81.6055V60.25H83.6055ZM82.6055 56H93.3155V54H82.6055V56ZM92.3155 55V56.89H94.3155V55H92.3155ZM93.9487 57.664C95.2915 56.5653 96.9278 56 98.9155 56V54C96.5165 54 94.4195 54.6947 92.6822 56.116L93.9487 57.664ZM98.9155 56H106.125V54H98.9155V56ZM105.125 55V60.6H107.125V55H105.125ZM106.125 59.6H98.2155V61.6H106.125V59.6ZM98.2155 59.6C96.484 59.6 95.0366 60.1823 94.06 61.464L95.6509 62.676C96.1677 61.9977 96.9603 61.6 98.2155 61.6V59.6ZM94.0746 61.4453C93.2256 62.5066 92.7253 63.6594 92.6666 64.8924L94.6643 64.9876C94.699 64.2606 94.992 63.5001 95.6363 62.6947L94.0746 61.4453ZM92.6655 64.94V84.75H94.6655V64.94H92.6655ZM93.6655 85.75H101.295V83.75H93.6655V85.75ZM100.295 84.75V90H102.295V84.75H100.295ZM101.295 89H82.6055V91H101.295V89ZM83.6055 90V84.75H81.6055V90H83.6055ZM82.6055 85.75H87.7155V83.75H82.6055V85.75ZM140.568 89.44L140.098 90.3224L140.109 90.3285L140.121 90.3344L140.568 89.44ZM138.748 87.9L139.535 87.2822L138.739 86.2691L137.955 87.2916L138.748 87.9ZM120.478 87.9L119.804 88.639L119.816 88.6493L119.827 88.6593L120.478 87.9ZM136.998 68.3V69.3H137.998V68.3H136.998ZM120.898 60.25H119.898V61.25H120.898V60.25ZM120.898 55V54H119.898V55H120.898ZM140.008 57.66L139.328 58.3935L139.337 58.4015L140.008 57.66ZM143.718 84.61L143.13 85.4187L143.171 85.4484L143.214 85.4738L143.718 84.61ZM146.448 85.1H147.448V84.1H146.448V85.1ZM146.448 90V91H147.448V90H146.448ZM136.438 83.77L137.306 84.2661L137.306 84.2661L136.438 83.77ZM136.998 73.55H137.998V72.55H136.998V73.55ZM125.238 74.74L125.945 75.4471L125.945 75.4471L125.238 74.74ZM124.888 83.91L124.181 84.6171L124.181 84.6171L124.888 83.91ZM142.598 89C142.194 89 141.673 88.8742 141.015 88.5456L140.121 90.3344C140.957 90.7525 141.789 91 142.598 91V89ZM141.039 88.5576C140.467 88.2527 139.966 87.8317 139.535 87.2822L137.962 88.5178C138.557 89.275 139.269 89.8806 140.098 90.3224L141.039 88.5576ZM137.955 87.2916C137.072 88.4432 135.942 89 134.478 89V91C136.561 91 138.278 90.1568 139.542 88.5084L137.955 87.2916ZM134.478 89H128.248V91H134.478V89ZM128.248 89C124.796 89 122.496 88.3121 121.129 87.1407L119.827 88.6593C121.727 90.2879 124.607 91 128.248 91V89ZM121.152 87.161C119.871 85.9927 119.098 83.8887 119.098 80.55H117.098C117.098 84.1179 117.912 86.9139 119.804 88.639L121.152 87.161ZM119.098 80.55V79.15H117.098V80.55H119.098ZM119.098 79.15C119.098 75.6731 119.918 73.2514 121.381 71.6982C122.834 70.1562 125.081 69.3 128.318 69.3V67.3C124.742 67.3 121.88 68.2522 119.925 70.3268C117.982 72.3903 117.098 75.3936 117.098 79.15H119.098ZM128.318 69.3H136.998V67.3H128.318V69.3ZM137.998 68.3V64.8H135.998V68.3H137.998ZM137.998 64.8C137.998 63.1355 137.479 61.7181 136.335 60.6948L135.001 62.1852C135.631 62.7485 135.998 63.5712 135.998 64.8H137.998ZM136.335 60.6948C135.197 59.6767 133.612 59.25 131.748 59.25V61.25C133.338 61.25 134.366 61.6166 135.001 62.1852L136.335 60.6948ZM131.748 59.25H120.898V61.25H131.748V59.25ZM121.898 60.25V55H119.898V60.25H121.898ZM120.898 56H131.048V54H120.898V56ZM131.048 56C134.991 56 137.68 56.8652 139.328 58.3934L140.688 56.9266C138.51 54.9081 135.225 54 131.048 54V56ZM139.337 58.4015C141.004 59.9093 141.948 62.4249 141.948 66.2H143.948C143.948 62.1351 142.933 58.9574 140.679 56.9185L139.337 58.4015ZM141.948 66.2V83H143.948V66.2H141.948ZM141.948 83C141.948 83.9818 142.329 84.8359 143.13 85.4187L144.306 83.8013C144.081 83.6375 143.948 83.4182 143.948 83H141.948ZM143.214 85.4738C144.014 85.9401 145.149 86.1 146.448 86.1V84.1C145.227 84.1 144.543 83.9332 144.222 83.7462L143.214 85.4738ZM145.448 85.1V90H147.448V85.1H145.448ZM146.448 89H142.598V91H146.448V89ZM133.778 85.75C135.232 85.75 136.643 85.4269 137.306 84.2661L135.57 83.2739C135.487 83.4198 135.124 83.75 133.778 83.75V85.75ZM137.306 84.2661C137.792 83.4165 137.998 82.3899 137.998 81.25H135.998C135.998 82.1634 135.831 82.8168 135.57 83.2739L137.306 84.2661ZM137.998 81.25V73.55H135.998V81.25H137.998ZM136.998 72.55H128.248V74.55H136.998V72.55ZM128.248 72.55C126.794 72.55 125.528 73.0358 124.531 74.0329L125.945 75.4471C126.535 74.8575 127.276 74.55 128.248 74.55V72.55ZM124.531 74.0329C123.534 75.03 123.048 76.2953 123.048 77.75H125.048C125.048 76.778 125.356 76.0367 125.945 75.4471L124.531 74.0329ZM123.048 77.75V81.25H125.048V77.75H123.048ZM123.048 81.25C123.048 82.5903 123.354 83.7904 124.181 84.6171L125.595 83.2029C125.302 82.9096 125.048 82.3364 125.048 81.25H123.048ZM124.181 84.6171C125.008 85.4439 126.208 85.75 127.548 85.75V83.75C126.462 83.75 125.889 83.4961 125.595 83.2029L124.181 84.6171ZM127.548 85.75H133.778V83.75H127.548V85.75ZM177.461 88.39H178.461V86.4741L176.889 87.5696L177.461 88.39ZM159.961 87.41L159.281 88.1435L159.291 88.1524L159.961 87.41ZM159.961 57.66L159.29 56.9184L159.281 56.9266L159.961 57.66ZM177.111 55V56H178.111V55H177.111ZM177.111 41V40H176.111V41H177.111ZM183.061 41H184.061V40H183.061V41ZM183.061 90V91H184.061V90H183.061ZM177.461 90H176.461V91H177.461V90ZM175.991 83.56L176.719 84.2454L176.729 84.235L176.738 84.2244L175.991 83.56ZM177.111 60.25H178.111V59.25H177.111V60.25ZM164.371 61.44L163.704 60.6948L163.704 60.6948L164.371 61.44ZM164.371 83.56L163.704 84.3052L163.704 84.3052L164.371 83.56ZM176.889 87.5696C175.544 88.5073 173.885 89 171.861 89V91C174.223 91 176.298 90.4194 178.033 89.2104L176.889 87.5696ZM171.861 89H168.991V91H171.861V89ZM168.991 89C164.992 89 162.278 88.1542 160.631 86.6676L159.291 88.1524C161.47 90.1192 164.776 91 168.991 91V89ZM160.641 86.6766C159.018 85.1721 158.091 82.6324 158.091 78.8H156.091C156.091 82.9009 157.078 86.1012 159.281 88.1434L160.641 86.6766ZM158.091 78.8V66.2H156.091V78.8H158.091ZM158.091 66.2C158.091 62.4186 159.015 59.8998 160.641 58.3934L159.281 56.9266C157.08 58.9669 156.091 62.1414 156.091 66.2H158.091ZM160.632 58.4015C162.331 56.8641 165.051 56 168.991 56V54C164.811 54 161.511 54.9092 159.29 56.9185L160.632 58.4015ZM168.991 56H177.111V54H168.991V56ZM178.111 55V41H176.111V55H178.111ZM177.111 42H183.061V40H177.111V42ZM182.061 41V90H184.061V41H182.061ZM183.061 89H177.461V91H183.061V89ZM178.461 90V88.39H176.461V90H178.461ZM172.561 85.75C174.26 85.75 175.716 85.3109 176.719 84.2454L175.263 82.8746C174.772 83.3958 173.942 83.75 172.561 83.75V85.75ZM176.738 84.2244C177.613 83.2406 178.111 82.1261 178.111 80.9H176.111C176.111 81.5405 175.862 82.1994 175.244 82.8956L176.738 84.2244ZM178.111 80.9V60.25H176.111V80.9H178.111ZM177.111 59.25H168.291V61.25H177.111V59.25ZM168.291 59.25C166.428 59.25 164.842 59.6767 163.704 60.6948L165.038 62.1852C165.673 61.6166 166.701 61.25 168.291 61.25V59.25ZM163.704 60.6948C162.56 61.7181 162.041 63.1355 162.041 64.8H164.041C164.041 63.5712 164.408 62.7485 165.038 62.1852L163.704 60.6948ZM162.041 64.8V80.2H164.041V64.8H162.041ZM162.041 80.2C162.041 81.8645 162.56 83.2819 163.704 84.3052L165.038 82.8148C164.408 82.2515 164.041 81.4288 164.041 80.2H162.041ZM163.704 84.3052C164.842 85.3233 166.428 85.75 168.291 85.75V83.75C166.701 83.75 165.673 83.3834 165.038 82.8148L163.704 84.3052ZM168.291 85.75H172.561V83.75H168.291V85.75ZM211.204 41H212.204V40H211.204V41ZM211.204 47.3V48.3H212.204V47.3H211.204ZM204.554 47.3H203.554V48.3H204.554V47.3ZM204.554 41V40H203.554V41H204.554ZM194.614 60.25H193.614V61.25H194.614V60.25ZM194.614 55V54H193.614V55H194.614ZM210.854 55H211.854V54H210.854V55ZM210.854 84.75H209.854V85.75H210.854V84.75ZM221.214 84.75H222.214V83.75H221.214V84.75ZM221.214 90V91H222.214V90H221.214ZM204.904 90H203.904V91H204.904V90ZM204.904 60.25H205.904V59.25H204.904V60.25ZM210.204 41V47.3H212.204V41H210.204ZM211.204 46.3H204.554V48.3H211.204V46.3ZM205.554 47.3V41H203.554V47.3H205.554ZM204.554 42H211.204V40H204.554V42ZM195.614 60.25V55H193.614V60.25H195.614ZM194.614 56H210.854V54H194.614V56ZM209.854 55V84.75H211.854V55H209.854ZM210.854 85.75H221.214V83.75H210.854V85.75ZM220.214 84.75V90H222.214V84.75H220.214ZM221.214 89H204.904V91H221.214V89ZM205.904 90V60.25H203.904V90H205.904ZM204.904 59.25H194.614V61.25H204.904V59.25ZM253.626 87.83L253.004 87.0471L252.994 87.0551L253.626 87.83ZM235.426 90H234.426V91H235.426V90ZM235.426 84.75V83.75H234.426V84.75H235.426ZM249.426 83.98L250.044 84.7663L250.061 84.7531L250.077 84.7393L249.426 83.98ZM237.456 72.64L236.783 73.379L236.794 73.3893L236.806 73.3993L237.456 72.64ZM237.736 57.1L238.343 57.8949L238.35 57.89L238.356 57.8849L237.736 57.1ZM254.956 55H255.956V54H254.956V55ZM254.956 60.25V61.25H255.956V60.25H254.956ZM242.076 61.09L242.668 61.8964L242.685 61.884L242.701 61.8709L242.076 61.09ZM241.936 68.3L241.29 69.0634L241.304 69.0751L241.319 69.0863L241.936 68.3ZM253.906 71.38L253.22 72.1076L253.226 72.1129L253.232 72.118L253.906 71.38ZM255.356 81.25C255.356 83.9733 254.524 85.839 253.004 87.0472L254.249 88.6128C256.369 86.9276 257.356 84.4067 257.356 81.25H255.356ZM252.994 87.0551C251.468 88.2999 249.141 89 245.856 89V91C249.385 91 252.238 90.2534 254.259 88.6049L252.994 87.0551ZM245.856 89H235.426V91H245.856V89ZM236.426 90V84.75H234.426V90H236.426ZM235.426 85.75H246.556V83.75H235.426V85.75ZM246.556 85.75C247.93 85.75 249.144 85.4735 250.044 84.7663L248.809 83.1937C248.402 83.5132 247.702 83.75 246.556 83.75V85.75ZM250.077 84.7393C250.995 83.9523 251.406 82.8566 251.406 81.6H249.406C249.406 82.3967 249.164 82.8877 248.776 83.2207L250.077 84.7393ZM251.406 81.6V77.89H249.406V81.6H251.406ZM251.406 77.89C251.406 76.6969 251.122 75.6165 250.377 74.8366C249.624 74.0483 248.566 73.74 247.396 73.74V75.74C248.234 75.74 248.681 75.9567 248.931 76.2184C249.189 76.4885 249.406 76.9831 249.406 77.89H251.406ZM247.396 73.74H244.806V75.74H247.396V73.74ZM244.806 73.74C241.659 73.74 239.486 73.0624 238.107 71.8807L236.806 73.3993C238.694 75.0176 241.42 75.74 244.806 75.74V73.74ZM238.13 71.901C236.828 70.7141 236.076 68.7734 236.076 65.85H234.076C234.076 69.0866 234.911 71.6725 236.783 73.379L238.13 71.901ZM236.076 65.85V63.82H234.076V65.85H236.076ZM236.076 63.82C236.076 60.8722 236.907 58.9909 238.343 57.8949L237.13 56.305C235.019 57.9158 234.076 60.5144 234.076 63.82H236.076ZM238.356 57.8849C239.881 56.6809 242.235 56 245.576 56V54C242.011 54 239.138 54.7191 237.117 56.3151L238.356 57.8849ZM245.576 56H254.956V54H245.576V56ZM253.956 55V60.25H255.956V55H253.956ZM254.956 59.25H244.876V61.25H254.956V59.25ZM244.876 59.25C243.552 59.25 242.376 59.5694 241.452 60.3091L242.701 61.8709C243.176 61.4906 243.868 61.25 244.876 61.25V59.25ZM241.485 60.2836C240.479 61.0212 240.026 62.1208 240.026 63.4H242.026C242.026 62.6259 242.274 62.1855 242.668 61.8964L241.485 60.2836ZM240.026 63.4V65.92H242.026V63.4H240.026ZM240.026 65.92C240.026 67.1785 240.388 68.2994 241.29 69.0634L242.582 67.5366C242.272 67.2739 242.026 66.8082 242.026 65.92H240.026ZM241.319 69.0863C242.178 69.7619 243.224 70.07 244.386 70.07V68.07C243.589 68.07 243.001 67.8648 242.554 67.5137L241.319 69.0863ZM244.386 70.07H246.766V68.07H244.386V70.07ZM246.766 70.07C249.739 70.07 251.835 70.8013 253.22 72.1076L254.592 70.6524C252.711 68.8787 250.047 68.07 246.766 68.07V70.07ZM253.232 72.118C254.593 73.3624 255.356 75.2917 255.356 78.1H257.356C257.356 74.935 256.487 72.3843 254.581 70.642L253.232 72.118ZM255.356 78.1V81.25H257.356V78.1H255.356ZM274.069 87.41L273.389 88.1435L273.399 88.1524L274.069 87.41ZM273.789 57.59L273.082 56.8829L273.082 56.8829L273.789 57.59ZM293.179 57.8L292.436 58.469L292.445 58.4787L292.454 58.4883L293.179 57.8ZM295.769 74.95V75.95H296.769V74.95H295.769ZM277.149 74.95V73.95H276.149V74.95H277.149ZM278.479 83.56L279.146 82.8148L279.146 82.8148L278.479 83.56ZM293.529 84.75H294.529V83.75H293.529V84.75ZM293.529 90V91H294.529V90H293.529ZM288.769 61.44L289.476 60.7329L289.476 60.7329L288.769 61.44ZM278.129 61.44L277.379 60.7784L277.377 60.7815L278.129 61.44ZM277.149 69.7H276.149V70.7H277.149V69.7ZM289.959 69.7V70.7H290.959V69.7H289.959ZM283.099 89C279.1 89 276.386 88.1542 274.739 86.6676L273.399 88.1524C275.579 90.1192 278.884 91 283.099 91V89ZM274.749 86.6766C273.126 85.1721 272.199 82.6324 272.199 78.8H270.199C270.199 82.9009 271.186 86.1012 273.389 88.1434L274.749 86.6766ZM272.199 78.8V66.2H270.199V78.8H272.199ZM272.199 66.2C272.199 62.2895 273.047 59.7463 274.496 58.2971L273.082 56.8829C271.078 58.887 270.199 62.0838 270.199 66.2H272.199ZM274.496 58.2971C275.945 56.8479 278.489 56 282.399 56V54C278.283 54 275.086 54.8787 273.082 56.8829L274.496 58.2971ZM282.399 56H285.689V54H282.399V56ZM285.689 56C288.814 56 291.001 56.8748 292.436 58.469L293.922 57.131C291.997 54.9918 289.19 54 285.689 54V56ZM292.454 58.4883C293.942 60.0575 294.769 62.4531 294.769 65.85H296.769C296.769 62.1535 295.869 59.1825 293.905 57.1117L292.454 58.4883ZM294.769 65.85V74.95H296.769V65.85H294.769ZM295.769 73.95H277.149V75.95H295.769V73.95ZM276.149 74.95V80.2H278.149V74.95H276.149ZM276.149 80.2C276.149 81.8645 276.669 83.2819 277.812 84.3052L279.146 82.8148C278.516 82.2515 278.149 81.4288 278.149 80.2H276.149ZM277.812 84.3052C278.95 85.3233 280.536 85.75 282.399 85.75V83.75C280.809 83.75 279.781 83.3834 279.146 82.8148L277.812 84.3052ZM282.399 85.75H293.529V83.75H282.399V85.75ZM292.529 84.75V90H294.529V84.75H292.529ZM293.529 89H283.099V91H293.529V89ZM290.959 64.45C290.959 62.9953 290.473 61.73 289.476 60.7329L288.062 62.1471C288.652 62.7367 288.959 63.478 288.959 64.45H290.959ZM289.476 60.7329C288.479 59.7358 287.214 59.25 285.759 59.25V61.25C286.731 61.25 287.472 61.5575 288.062 62.1471L289.476 60.7329ZM285.759 59.25H281.699V61.25H285.759V59.25ZM281.699 59.25C279.898 59.25 278.357 59.6707 277.379 60.7784L278.879 62.1016C279.302 61.6226 280.14 61.25 281.699 61.25V59.25ZM277.377 60.7815C276.5 61.7833 276.149 63.1829 276.149 64.8H278.149C278.149 63.4304 278.452 62.59 278.882 62.0985L277.377 60.7815ZM276.149 64.8V69.7H278.149V64.8H276.149ZM277.149 70.7H289.959V68.7H277.149V70.7ZM290.959 69.7V64.45H288.959V69.7H290.959Z" fill="#FFE600"/>
<rect x="320" y="80" width="38" height="10" fill="#FFE500"/>
</svg>
