<svg width="434" height="65" viewBox="0 0 434 65" fill="none" xmlns="http://www.w3.org/2000/svg">
<rect width="434" height="65" fill="#FF0000"/>
<path d="M171.08 17V41.96H180V45H167.6V17H171.08ZM202.842 38.6C202.842 40.84 202.282 42.4667 201.162 43.48C200.068 44.4933 198.362 45 196.042 45H194.722C192.402 45 190.682 44.4933 189.562 43.48C188.468 42.4667 187.922 40.84 187.922 38.6V31.4C187.922 29.16 188.468 27.5333 189.562 26.52C190.682 25.5067 192.402 25 194.722 25H196.042C198.362 25 200.068 25.5067 201.162 26.52C202.282 27.5333 202.842 29.16 202.842 31.4V38.6ZM199.442 30.6C199.442 29.7733 199.188 29.1333 198.682 28.68C198.175 28.2267 197.428 28 196.442 28H194.322C193.335 28 192.588 28.2267 192.082 28.68C191.575 29.1333 191.322 29.7733 191.322 30.6V39.4C191.322 40.2267 191.575 40.8667 192.082 41.32C192.588 41.7733 193.335 42 194.322 42H196.442C197.428 42 198.175 41.7733 198.682 41.32C199.188 40.8667 199.442 40.2267 199.442 39.4V30.6ZM224.883 46.4C224.883 48.2133 224.336 49.56 223.243 50.44C222.176 51.3467 220.496 51.8 218.203 51.8H209.883V48.8H218.603C219.563 48.8 220.283 48.6133 220.763 48.24C221.243 47.8667 221.483 47.3867 221.483 46.8V45.52C221.483 44.9067 221.243 44.4267 220.763 44.08C220.283 43.7067 219.563 43.52 218.603 43.52H211.683V38C210.803 37.52 210.15 36.8267 209.723 35.92C209.296 35.0133 209.083 33.84 209.083 32.4V31.4C209.083 29.16 209.63 27.5333 210.723 26.52C211.843 25.5067 213.563 25 215.883 25H224.283V32.4C224.283 34.4 223.736 35.9733 222.643 37.12C221.55 38.24 220.096 38.8 218.283 38.8H215.083V40.52H218.203C220.496 40.52 222.176 40.9733 223.243 41.88C224.336 42.76 224.883 44.1067 224.883 45.92V46.4ZM218.283 35.8C219.11 35.8 219.736 35.5333 220.163 35C220.59 34.4667 220.83 33.9067 220.883 33.32V28H215.483C214.496 28 213.75 28.2267 213.243 28.68C212.736 29.1333 212.483 29.7733 212.483 30.6V33.2C212.483 34.0267 212.736 34.6667 213.243 35.12C213.75 35.5733 214.496 35.8 215.483 35.8H218.283ZM240.485 17V20.6H236.685V17H240.485ZM231.005 28V25H240.285V42H246.205V45H236.885V28H231.005ZM256.086 25V25.96C256.913 25.32 257.98 25 259.286 25H261.126C263.286 25 264.886 25.5067 265.926 26.52C266.993 27.5333 267.526 29.16 267.526 31.4V45H264.126V30.6C264.126 29.8 263.886 29.1733 263.406 28.72C262.953 28.24 262.326 28 261.526 28H258.886C258.006 28 257.353 28.24 256.926 28.72C256.5 29.1733 256.286 29.6667 256.286 30.2V45H252.886V25H256.086Z" fill="white"/>
</svg>
